<?xml version="1.0" standalone="no"?>
<!DOCTYPE svg PUBLIC "-//W3C//DTD SVG 20010904//EN"
 "http://www.w3.org/TR/2001/REC-SVG-20010904/DTD/svg10.dtd">
<svg version="1.0" xmlns="http://www.w3.org/2000/svg"
 width="338.000000pt" height="338.000000pt" viewBox="0 0 338.000000 338.000000"
 preserveAspectRatio="xMidYMid meet">
<metadata>
Created by potrace 1.11, written by Peter Selinger 2001-2013
</metadata>
<g transform="translate(0.000000,338.000000) scale(0.100000,-0.100000)"
fill="#000000" stroke="none">
<path d="M1605 3331 c-108 -27 -214 -112 -259 -208 -15 -32 -30 -64 -34 -72
-4 -7 -43 -25 -87 -40 -346 -117 -664 -414 -813 -761 -18 -42 -39 -96 -46
-120 -12 -42 -15 -44 -73 -61 -73 -20 -96 -32 -151 -77 -94 -75 -148 -201
-139 -321 5 -69 8 -79 39 -150 36 -80 145 -172 233 -196 17 -5 33 -9 38 -10 4
-2 13 -3 21 -4 7 0 26 -36 41 -78 61 -171 177 -363 297 -491 145 -154 343
-288 526 -353 31 -11 69 -25 83 -31 19 -7 32 -24 44 -56 38 -100 118 -186 214
-230 48 -22 70 -26 151 -26 82 0 103 4 153 26 31 15 81 50 110 77 50 47 107
141 107 175 0 19 17 28 101 57 193 66 398 202 553 367 113 120 232 318 291
484 26 72 29 76 63 83 123 23 236 120 287 245 26 64 28 188 5 256 -49 142
-173 244 -321 263 -4 1 -11 13 -16 29 -33 89 -80 202 -97 232 -12 19 -29 51
-39 70 -29 58 -132 190 -210 268 -141 144 -334 268 -518 332 -45 15 -85 32
-89 37 -4 4 -15 29 -25 55 -34 92 -144 191 -246 221 -50 15 -150 19 -194 8z
m170 -190 c46 -20 105 -83 105 -110 0 -10 3 -21 7 -24 14 -14 13 -73 -2 -118
-29 -86 -106 -141 -196 -141 -146 2 -242 147 -189 287 38 100 173 153 275 106z
m-432 -351 c90 -195 328 -277 520 -180 69 35 141 110 174 181 33 71 30 71 170
4 134 -64 236 -136 343 -244 126 -127 218 -270 279 -431 26 -67 26 -67 1 -75
-11 -3 -42 -24 -69 -45 -200 -158 -199 -452 1 -610 27 -22 56 -40 63 -40 24 0
25 -16 6 -73 -94 -272 -326 -533 -596 -670 -38 -20 -93 -44 -121 -55 l-51 -19
-26 57 c-34 72 -109 149 -181 183 -196 93 -417 13 -513 -184 l-27 -56 -59 23
c-263 103 -486 296 -624 540 -36 63 -103 215 -103 233 0 4 15 14 33 23 54 26
131 103 160 160 32 64 38 83 44 165 11 143 -77 296 -210 363 -31 16 -31 18 16
130 102 245 288 454 523 587 69 39 189 92 209 93 6 0 22 -27 38 -60z m-862
-913 c87 -46 131 -156 99 -253 -16 -47 -77 -108 -126 -124 -89 -30 -198 10
-245 88 -26 45 -35 127 -20 175 15 44 69 103 113 122 51 22 128 19 179 -8z
m2594 9 c146 -61 167 -268 37 -361 -60 -41 -148 -47 -212 -13 -119 64 -147
223 -57 322 18 19 48 42 67 50 45 19 121 20 165 2z m-1303 -1266 c15 0 89 -73
103 -100 19 -37 25 -115 12 -156 -15 -50 -70 -109 -119 -128 -164 -66 -329 91
-272 258 33 97 136 156 234 134 19 -4 38 -8 42 -8z"/>
</g>
</svg>
